<?xml version="1.0" standalone="no"?>
<!DOCTYPE svg PUBLIC "-//W3C//DTD SVG 20010904//EN"
 "http://www.w3.org/TR/2001/REC-SVG-20010904/DTD/svg10.dtd">
<svg version="1.0" xmlns="http://www.w3.org/2000/svg"
 width="621.000000pt" height="272.000000pt" viewBox="0 0 621.000000 272.000000"
 preserveAspectRatio="xMidYMid meet">

<g transform="translate(0.000000,272.000000) scale(0.100000,-0.100000)"
fill="#000000" stroke="none">
<path d="M1843 2020 c-71 -36 -119 -87 -134 -145 -17 -61 -5 -149 25 -195 26
-40 24 -49 -16 -63 -17 -6 -18 -34 -18 -407 0 -358 2 -401 16 -407 27 -10 396
39 429 57 l30 17 0 394 0 394 -22 3 -22 3 22 42 c13 25 23 66 25 102 3 51 -1
68 -25 114 -41 78 -93 112 -180 118 -61 4 -74 2 -130 -27z m317 -765 l0 -364
-32 -6 c-36 -6 -348 -45 -360 -45 -5 0 -8 173 -8 384 l0 385 38 4 c20 2 110 4
200 5 l162 2 0 -365z"/>
<path d="M4503 2020 c-71 -36 -119 -87 -134 -145 -17 -61 -5 -149 25 -195 26
-40 24 -49 -16 -63 -17 -6 -18 -34 -18 -407 0 -358 2 -401 16 -407 27 -10 396
39 429 57 l30 17 0 394 0 394 -22 3 -22 3 22 42 c13 25 23 66 25 102 3 51 -1
68 -25 114 -41 78 -93 112 -180 118 -61 4 -74 2 -130 -27z m317 -765 l0 -364
-32 -6 c-36 -6 -348 -45 -360 -45 -5 0 -8 173 -8 384 l0 385 38 4 c20 2 110 4
200 5 l162 2 0 -365z"/>
<path d="M2959 2022 c-15 -9 -68 -63 -119 -120 -51 -56 -94 -101 -96 -99 -2 2
3 36 12 75 9 40 14 78 11 86 -8 21 -476 11 -524 -10 l-33 -15 0 -550 c0 -501
1 -550 16 -556 25 -9 432 56 482 78 41 17 42 19 42 64 l0 46 111 -128 c159
-183 143 -169 176 -153 15 8 85 70 156 139 l127 126 0 -37 c0 -20 6 -40 13
-45 6 -4 85 -31 175 -61 162 -53 164 -54 199 -37 34 16 35 19 29 58 -20 143
-36 321 -29 327 4 4 23 12 40 18 l33 11 -6 -57 c-17 -184 -21 -268 -13 -278 5
-6 94 -23 198 -39 l188 -28 34 19 34 20 60 537 c39 354 56 540 50 546 -6 5
-87 25 -181 42 -164 31 -173 32 -205 16 l-34 -16 -50 -208 -50 -208 -43 -3
-42 -3 0 165 c0 91 -4 167 -9 170 -13 8 -366 -61 -400 -79 -37 -19 -36 9 -16
-370 8 -154 15 -305 15 -335 l-1 -55 -140 145 c-76 80 -151 160 -166 178 l-26
33 141 142 c78 78 142 149 142 157 0 23 -237 305 -258 307 -9 1 -29 -6 -43
-15z m71 -497 l-95 -95 71 -72 c38 -40 123 -128 188 -196 l117 -123 -60 -67
c-33 -37 -90 -97 -128 -134 l-68 -67 -160 185 c-88 102 -164 188 -169 191 -6
4 -7 -37 -3 -100 4 -59 3 -107 -1 -107 -4 0 -104 -16 -222 -35 -118 -19 -218
-35 -222 -35 -5 0 -8 169 -8 375 l0 375 427 0 428 0 -95 -95z m670 65 l0 -31
82 3 c78 3 82 4 88 28 l6 25 197 3 c183 2 197 1 197 -15 -1 -40 -78 -714 -82
-718 -7 -7 -351 46 -362 56 -5 4 -3 78 4 173 7 92 11 168 9 170 -4 4 -157 -39
-165 -46 -2 -3 6 -86 18 -186 12 -100 19 -185 15 -188 -3 -3 -78 17 -166 45
l-161 52 0 44 c0 42 -16 428 -23 558 l-3 57 173 0 173 0 0 -30z"/>
<path d="M1414 1947 c-132 -34 -252 -70 -267 -80 -26 -17 -27 -22 -27 -100 l0
-82 -61 115 c-72 135 -75 140 -103 140 -33 -1 -372 -105 -401 -124 -21 -14
-25 -24 -25 -64 0 -26 -5 -199 -11 -386 -9 -282 -9 -340 2 -351 8 -7 96 -38
195 -69 172 -53 183 -55 210 -41 l29 15 5 152 5 151 183 -236 c101 -130 189
-237 196 -237 7 0 26 7 42 15 30 14 30 15 173 619 79 333 140 610 136 615 -9
16 -21 14 -281 -52z m-264 -379 c14 -27 28 -48 33 -48 4 0 7 23 7 50 l0 50
199 0 198 0 -33 -142 c-18 -79 -61 -266 -96 -415 -35 -150 -65 -273 -68 -273
-3 0 -104 129 -225 286 l-220 286 -3 -211 c-1 -116 -6 -211 -10 -211 -10 0
-353 108 -358 112 -1 2 1 109 6 238 5 129 10 256 10 283 l0 47 268 -2 267 -3
25 -47z"/>
<path d="M5010 1973 c-41 -2 -90 -10 -107 -19 -29 -13 -33 -20 -33 -52 0 -162
33 -1059 39 -1065 5 -5 158 -3 342 4 290 11 339 15 372 31 l37 19 -2 247 -3
247 -75 0 c-41 0 -117 -3 -167 -7 l-93 -8 -2 303 -3 302 -115 1 c-63 0 -149
-1 -190 -3z m290 -489 l0 -137 118 7 c64 4 141 9 170 13 l52 6 0 -236 0 -235
-77 -6 c-43 -3 -154 -8 -248 -11 -93 -3 -211 -8 -261 -11 l-92 -6 -6 308 c-3
170 -8 339 -11 377 l-5 67 180 0 180 0 0 -136z"/>
</g>
</svg>
